<svg width="27" height="26" viewBox="0 0 27 26" fill="none" xmlns="http://www.w3.org/2000/svg">
<path fill-rule="evenodd" clip-rule="evenodd" d="M7.49597 25.9861C7.38706 25.9783 7.27786 25.972 7.16896 25.9616C6.55875 25.9014 5.99923 25.6926 5.50242 25.3149C4.6453 24.6631 4.09719 23.7965 3.87879 22.706C3.79718 22.2962 3.77438 21.8826 3.79928 21.4652C3.82748 20.9753 3.92049 20.5003 4.06869 20.0357C4.3054 19.2941 4.6624 18.6213 5.11421 18.001C5.45472 17.5336 5.84023 17.1102 6.26504 16.7262C6.66255 16.3665 7.02346 15.9693 7.36156 15.5487C7.78697 15.0186 8.17188 14.4566 8.55199 13.8908C8.888 13.3906 9.21831 12.8872 9.57501 12.4037C9.84322 12.0389 10.1261 11.6877 10.4414 11.3667C10.8359 10.9657 11.2713 10.6261 11.7843 10.4059C12.1692 10.2405 12.5691 10.153 12.9852 10.1438C13.4556 10.1325 13.9203 10.1813 14.3778 10.2988C15.078 10.4793 15.6846 10.8369 16.207 11.3572C16.5643 11.7148 16.8667 12.1192 17.1478 12.5426C17.446 12.9915 17.7199 13.4568 18.0025 13.9167C18.3211 14.4345 18.6499 14.9442 19.0174 15.4262C19.3834 15.9066 19.7872 16.3498 20.2282 16.7552C20.7617 17.2457 21.2351 17.7916 21.6383 18.4046C21.9821 18.9303 22.2623 19.4894 22.4579 20.0936C22.6103 20.5643 22.706 21.0456 22.7303 21.543C22.7678 22.2984 22.6436 23.0207 22.3172 23.7001C22.0151 24.3298 21.5777 24.8354 21.0284 25.2371C20.6246 25.5322 20.1889 25.7565 19.7092 25.8812C19.5394 25.926 19.3669 25.9581 19.1926 25.9757C19.1683 25.9783 19.1449 25.983 19.1215 25.9868C19.0987 26.0003 19.0735 25.9902 19.0495 25.9934C19.0297 25.9962 19.0087 25.9868 18.9898 26C18.841 26 18.6916 26 18.5428 26C18.5251 25.9865 18.505 25.9959 18.4861 25.9934C18.4687 25.9934 18.4522 25.9934 18.4351 25.9934C18.421 25.9934 18.4057 25.9934 18.3919 25.9934C18.0106 25.9805 17.6404 25.897 17.2714 25.8072C16.6462 25.6541 16.0333 25.4528 15.4113 25.2865C14.9076 25.1523 14.3997 25.0433 13.8828 24.9813C13.5246 24.9381 13.1655 24.9334 12.8073 24.9463C12.5208 24.9564 12.2364 25.0027 11.9547 25.0578C11.3985 25.1678 10.8533 25.3249 10.3079 25.4812C9.73102 25.6475 9.1541 25.8129 8.56339 25.9143C8.32308 25.955 8.08248 25.9899 7.83827 25.9874C7.78817 25.9868 7.73837 25.9946 7.68767 25.9934C7.62317 25.9896 7.55957 26.0016 7.49597 25.9861ZM18.5173 0.0113402C19.3213 0.112772 19.9354 0.541811 20.4047 1.21844C20.7263 1.68245 20.9285 2.20284 21.0539 2.75914C21.161 3.23827 21.2015 3.72464 21.1862 4.21668C21.158 5.12074 20.9558 5.97945 20.582 6.79406C20.3231 7.35855 19.9888 7.8676 19.5628 8.30672C19.1833 8.69701 18.754 9.00887 18.253 9.20323C17.9011 9.33963 17.5393 9.40704 17.1643 9.38373C16.5151 9.34435 15.964 9.07345 15.5007 8.60031C15.1059 8.19647 14.8368 7.70821 14.6505 7.16766C14.5203 6.78965 14.439 6.39999 14.3967 6.0015C14.3673 5.72839 14.3556 5.45497 14.364 5.18154C14.3832 4.53609 14.4936 3.90765 14.6934 3.29749C14.9055 2.64794 15.2061 2.04912 15.6165 1.51361C15.9619 1.06315 16.3654 0.682304 16.8496 0.401003C17.2054 0.194044 17.5843 0.0601662 17.9899 0.0119702C18.0022 0.00472509 18.0157 0.00787516 18.0283 0.00693014H18.0667C18.0853 0.00441009 18.1051 0.0138603 18.1216 0H18.385C18.4021 0.0141753 18.4213 0.00472509 18.4399 0.00693014H18.4786C18.4909 0.00724515 18.5047 0.00378008 18.5173 0.0113402ZM0.0243005 9.97972C0.0369008 9.72204 0.0810018 9.46909 0.145503 9.22024C0.270306 8.7367 0.474611 8.29601 0.792918 7.91863C1.14873 7.49747 1.58854 7.22499 2.11535 7.11505C2.54316 7.02622 2.96527 7.06433 3.38018 7.19853C3.85719 7.3532 4.27899 7.61623 4.654 7.95864C5.23662 8.48879 5.65423 9.14117 5.94343 9.88774C6.09464 10.2787 6.19934 10.6834 6.25724 11.1008C6.28544 11.3034 6.29894 11.5072 6.30284 11.7119C6.30974 12.1007 6.27254 12.4831 6.18074 12.8592C6.05833 13.361 5.85223 13.8178 5.52372 14.2087C5.14661 14.6573 4.6765 14.9363 4.11309 15.0324C3.69968 15.103 3.29317 15.0554 2.89536 14.9206C2.36045 14.7382 1.90204 14.4251 1.49823 14.0197C1.10432 13.6253 0.791418 13.1673 0.547512 12.6579C0.308407 12.1583 0.143403 11.6316 0.0639014 11.0775C0.0501011 10.9795 0.0387009 10.8816 0.0261006 10.7839C0.0162004 10.7392 0.0201004 10.6935 0.00990022 10.6491C0.00510011 10.6305 0.00780017 10.6129 0.00690015 10.5937C0.00360008 10.57 0.0138003 10.5448 0 10.5212C0 10.4015 0 10.2821 0 10.1621C0.0213005 10.1293 0.0108002 10.0928 0.0132003 10.0578C0.0150003 10.0317 0.00870019 10.004 0.0243005 9.97972ZM5.66923 4.21951C5.67193 3.50665 5.76853 2.86372 5.99563 2.24505C6.16694 1.77727 6.40214 1.34949 6.72975 0.981245C7.08256 0.583707 7.50167 0.298626 8.00718 0.164433C8.51269 0.0296106 9.0095 0.0680414 9.49791 0.25358C9.92812 0.417384 10.3034 0.675689 10.6367 1.00172C11.1689 1.52148 11.55 2.14897 11.8215 2.85238C11.994 3.29969 12.1128 3.76212 12.1806 4.23873C12.219 4.509 12.2412 4.78148 12.2466 5.05585C12.2523 5.4011 12.2316 5.74509 12.1773 6.08592C12.0645 6.79815 11.8344 7.46156 11.424 8.0481C11.1686 8.41193 10.8587 8.71276 10.4783 8.92949C10.0532 9.17141 9.59811 9.27253 9.1166 9.23347C8.68129 9.1985 8.27988 9.04919 7.90548 8.81609C7.41706 8.51242 7.02166 8.10291 6.69255 7.62095C6.30224 7.04858 6.03403 6.41574 5.86423 5.73564C5.77123 5.36361 5.71183 4.98529 5.68483 4.60161C5.67403 4.45766 5.66473 4.31275 5.66923 4.21951ZM27 10.3974V10.4803C26.97 11.1676 26.7948 11.8146 26.5119 12.4317C26.2893 12.9153 26.0052 13.356 25.6536 13.7466C25.2024 14.2487 24.6788 14.6402 24.0563 14.8752C23.6834 15.016 23.2994 15.0853 22.9025 15.0623C22.3166 15.0277 21.8051 14.8047 21.3749 14.3851C21.0197 14.0383 20.7854 13.6117 20.6378 13.1317C20.5049 12.7014 20.4512 12.2578 20.4647 11.8061C20.4938 10.8129 20.7929 9.9101 21.311 9.08384C21.4859 8.80411 21.6866 8.54581 21.9116 8.30955C22.3745 7.82539 22.9037 7.45305 23.5304 7.242C23.8868 7.12293 24.251 7.06843 24.6242 7.09899C25.1943 7.14529 25.6914 7.37178 26.1084 7.78475C26.4846 8.15741 26.7219 8.61763 26.8653 9.13424C26.9445 9.41964 26.9907 9.71165 27 10.0093V10.0928C26.997 10.1942 26.9973 10.2957 27 10.3974Z" fill="#004E89"/>
</svg>
