<svg width="65" height="63" viewBox="0 0 65 63" fill="none" xmlns="http://www.w3.org/2000/svg">
<path d="M51.4954 42.0537C53.6811 41.7905 55.1896 38.8994 54.8647 35.5962C54.5397 32.293 52.5043 29.8286 50.3185 30.0918C48.1328 30.355 46.6243 33.2461 46.9492 36.5493C47.2742 39.8525 49.3096 42.3169 51.4954 42.0537Z" fill="#FF6B35"/>
<path d="M23.925 12.1296C26.1904 11.9797 27.8834 9.20365 27.7064 5.92915C27.5294 2.65465 25.5494 0.121658 23.284 0.271555C21.0186 0.421453 19.3256 3.19747 19.5026 6.47197C19.6797 9.74647 21.6596 12.2795 23.925 12.1296Z" fill="#FF6B35"/>
<path d="M37.0146 10.3457C37.353 7.23781 35.8008 4.47495 33.5476 4.17465C31.2945 3.87436 29.1936 6.15034 28.8552 9.25821C28.5168 12.3661 30.069 15.1289 32.3221 15.4292C34.5753 15.7295 36.6761 13.4535 37.0146 10.3457Z" fill="#FF6B35"/>
<path d="M15.1611 14.3445C17.4075 13.7598 18.641 10.5222 17.9161 7.11326C17.1912 3.70428 14.7824 1.41474 12.536 1.99943C10.2896 2.58412 9.05615 5.82163 9.78105 9.23062C10.506 12.6396 12.9147 14.9291 15.1611 14.3445Z" fill="#FF6B35"/>
<path d="M47.1776 47.4709C55.2414 42.4818 64.4686 49.5197 63.2572 54.8985C61.955 60.6611 56.9972 57.5554 53.2882 59.0551C51.0094 59.9762 47.5298 65.1483 43.522 61.9895C40.0264 59.2322 41.9156 50.7242 47.1776 47.4709Z" fill="#FF6B35"/>
<path d="M19.6933 15.6174C25.4569 13.9465 33.494 18.9002 32.5761 24.5506C31.7116 29.8704 25.03 27.55 22.3189 28.6659C18.786 30.1183 14.3565 34.3989 11.8376 30.1183C8.99848 25.2827 14.6341 17.0876 19.6933 15.6174Z" fill="#FF6B35"/>
<path d="M8.8733 21.0101C10.8412 19.753 11.2479 16.4562 9.78154 13.6464C8.31521 10.8367 5.53119 9.57793 3.56326 10.835C1.59532 12.092 1.18869 15.3889 2.65502 18.1986C4.12135 21.0084 6.90537 22.2671 8.8733 21.0101Z" fill="#FF6B35"/>
<path d="M44.2489 45.5956C46.2934 44.2897 46.7335 40.8983 45.2318 38.0207C43.7301 35.1432 40.8553 33.8692 38.8108 35.1751C36.7663 36.4811 36.3263 39.8725 37.8279 42.75C39.3296 45.6276 42.2044 46.9016 44.2489 45.5956Z" fill="#FF6B35"/>
<path d="M38.3506 54.1139C40.1439 52.7064 40.1889 49.3685 38.4512 46.6584C36.7134 43.9483 33.8509 42.8924 32.0576 44.2999C30.2643 45.7074 30.2193 49.0453 31.957 51.7554C33.6948 54.4655 36.5573 55.5214 38.3506 54.1139Z" fill="#FF6B35"/>
<path d="M61.0422 43.5757C63.228 43.4267 64.8609 40.8099 64.6894 37.731C64.5179 34.6522 62.607 32.277 60.4213 32.426C58.2355 32.575 56.6026 35.1917 56.7741 38.2706C56.9456 41.3495 58.8565 43.7247 61.0422 43.5757Z" fill="#FF6B35"/>
</svg>
